<mxfile host="Electron" modified="2024-09-06T19:12:05.057Z" agent="Mozilla/5.0 (X11; Linux x86_64) AppleWebKit/537.36 (KHTML, like Gecko) draw.io/24.6.4 Chrome/124.0.6367.207 Electron/30.0.6 Safari/537.36" etag="kUSSLBzEn_Sw6RZvL6O3" version="24.6.4" type="device">
  <diagram name="Page-1" id="9yTwoZx5FHeE5UeR-Vxw">
    <mxGraphModel dx="1434" dy="839" grid="1" gridSize="10" guides="1" tooltips="1" connect="1" arrows="1" fold="1" page="1" pageScale="1" pageWidth="850" pageHeight="1100" math="0" shadow="0">
      <root>
        <mxCell id="0" />
        <mxCell id="1" parent="0" />
        <mxCell id="DWMonZ4v9YPHwjhNjcm6-29" value="Enterprise Network" style="shape=mxgraph.ibm.box;prType=enterprise;fontStyle=0;verticalAlign=top;align=left;spacingLeft=32;spacingTop=4;fillColor=none;rounded=0;whiteSpace=wrap;html=1;strokeColor=#333333;strokeWidth=1;dashed=1;container=1;spacing=-4;collapsible=0;expand=0;recursiveResize=0;perimeterSpacing=0;" vertex="1" parent="1">
          <mxGeometry x="290" y="60" width="1060" height="470" as="geometry" />
        </mxCell>
        <mxCell id="DWMonZ4v9YPHwjhNjcm6-84" value="Diagnostic Models" style="fontStyle=0;verticalAlign=top;align=left;spacingTop=-7;fillColor=none;rounded=0;whiteSpace=wrap;html=1;strokeColor=#919191;strokeWidth=1;dashed=1;container=1;collapsible=0;expand=0;recursiveResize=0;labelPosition=center;verticalLabelPosition=middle;horizontal=1;spacing=10;" vertex="1" parent="DWMonZ4v9YPHwjhNjcm6-29">
          <mxGeometry x="660" y="170" width="380" height="150" as="geometry" />
        </mxCell>
        <mxCell id="DWMonZ4v9YPHwjhNjcm6-89" style="rounded=0;orthogonalLoop=1;jettySize=auto;html=1;entryX=0;entryY=0.5;entryDx=0;entryDy=0;exitX=1;exitY=0.75;exitDx=0;exitDy=0;endArrow=blockThin;endFill=1;" edge="1" parent="DWMonZ4v9YPHwjhNjcm6-84" source="DWMonZ4v9YPHwjhNjcm6-81" target="DWMonZ4v9YPHwjhNjcm6-86">
          <mxGeometry relative="1" as="geometry">
            <Array as="points">
              <mxPoint x="180" y="105" />
            </Array>
          </mxGeometry>
        </mxCell>
        <mxCell id="DWMonZ4v9YPHwjhNjcm6-90" style="rounded=0;orthogonalLoop=1;jettySize=auto;html=1;entryX=0;entryY=0.5;entryDx=0;entryDy=0;endArrow=blockThin;endFill=1;" edge="1" parent="DWMonZ4v9YPHwjhNjcm6-84" source="DWMonZ4v9YPHwjhNjcm6-81" target="DWMonZ4v9YPHwjhNjcm6-37">
          <mxGeometry relative="1" as="geometry">
            <Array as="points">
              <mxPoint x="190" y="40" />
            </Array>
          </mxGeometry>
        </mxCell>
        <mxCell id="DWMonZ4v9YPHwjhNjcm6-81" value="model_wrapper&lt;br&gt;(One per disease)" style="image;aspect=fixed;perimeter=ellipsePerimeter;html=1;align=right;shadow=0;dashed=0;fontColor=#000000;labelBackgroundColor=default;fontSize=12;spacingTop=0;image=img/lib/ibm/blockchain/ledger.svg;labelPosition=left;verticalLabelPosition=middle;verticalAlign=middle;spacing=6;" vertex="1" parent="DWMonZ4v9YPHwjhNjcm6-84">
          <mxGeometry x="110" y="50" width="60" height="60" as="geometry" />
        </mxCell>
        <mxCell id="DWMonZ4v9YPHwjhNjcm6-37" value="Temporary File&lt;br&gt;System (tmfs)" style="image;aspect=fixed;perimeter=ellipsePerimeter;html=1;align=left;shadow=0;dashed=0;fontColor=#000000;labelBackgroundColor=default;fontSize=10;spacingTop=0;image=img/lib/ibm/social/file_sync.svg;labelPosition=right;verticalLabelPosition=middle;verticalAlign=middle;spacing=4;" vertex="1" parent="DWMonZ4v9YPHwjhNjcm6-84">
          <mxGeometry x="210" y="20" width="40" height="40" as="geometry" />
        </mxCell>
        <mxCell id="DWMonZ4v9YPHwjhNjcm6-91" style="edgeStyle=orthogonalEdgeStyle;rounded=0;orthogonalLoop=1;jettySize=auto;html=1;entryX=0.5;entryY=1;entryDx=0;entryDy=0;endArrow=none;endFill=0;strokeWidth=1;endSize=6;" edge="1" parent="DWMonZ4v9YPHwjhNjcm6-84" source="DWMonZ4v9YPHwjhNjcm6-86" target="DWMonZ4v9YPHwjhNjcm6-37">
          <mxGeometry relative="1" as="geometry" />
        </mxCell>
        <mxCell id="DWMonZ4v9YPHwjhNjcm6-86" value="Analysis Model Process&lt;br style=&quot;font-size: 10px;&quot;&gt;(ALEF compatible)" style="image;aspect=fixed;perimeter=ellipsePerimeter;html=1;align=left;shadow=0;dashed=0;fontColor=#000000;labelBackgroundColor=default;fontSize=10;spacingTop=0;image=img/lib/ibm/applications/automation_tools.svg;labelPosition=right;verticalLabelPosition=middle;verticalAlign=middle;spacing=6;" vertex="1" parent="DWMonZ4v9YPHwjhNjcm6-84">
          <mxGeometry x="205" y="80" width="50" height="50" as="geometry" />
        </mxCell>
        <mxCell id="DWMonZ4v9YPHwjhNjcm6-44" style="edgeStyle=orthogonalEdgeStyle;rounded=0;orthogonalLoop=1;jettySize=auto;html=1;entryX=0;entryY=0.5;entryDx=0;entryDy=0;endArrow=blockThin;endFill=1;exitX=1;exitY=0.5;exitDx=0;exitDy=0;" edge="1" parent="DWMonZ4v9YPHwjhNjcm6-29" source="DWMonZ4v9YPHwjhNjcm6-42" target="DWMonZ4v9YPHwjhNjcm6-23">
          <mxGeometry relative="1" as="geometry">
            <Array as="points">
              <mxPoint x="250" y="50" />
              <mxPoint x="250" y="50" />
            </Array>
          </mxGeometry>
        </mxCell>
        <mxCell id="DWMonZ4v9YPHwjhNjcm6-42" value="auth_service" style="image;aspect=fixed;perimeter=ellipsePerimeter;html=1;align=center;shadow=0;dashed=0;fontColor=#000000;labelBackgroundColor=default;fontSize=12;spacingTop=0;image=img/lib/ibm/blockchain/certificate_authority.svg;" vertex="1" parent="DWMonZ4v9YPHwjhNjcm6-29">
          <mxGeometry x="170" y="20" width="60" height="60" as="geometry" />
        </mxCell>
        <mxCell id="DWMonZ4v9YPHwjhNjcm6-23" value="authDB" style="image;aspect=fixed;perimeter=ellipsePerimeter;html=1;align=center;shadow=0;dashed=0;fontColor=#000000;labelBackgroundColor=default;fontSize=12;spacingTop=0;image=img/lib/ibm/data/data_services.svg;" vertex="1" parent="DWMonZ4v9YPHwjhNjcm6-29">
          <mxGeometry x="270" y="20" width="60" height="60" as="geometry" />
        </mxCell>
        <mxCell id="DWMonZ4v9YPHwjhNjcm6-55" style="rounded=0;orthogonalLoop=1;jettySize=auto;html=1;entryX=1;entryY=0.25;entryDx=0;entryDy=0;exitX=0;exitY=0.75;exitDx=0;exitDy=0;" edge="1" parent="DWMonZ4v9YPHwjhNjcm6-29" source="DWMonZ4v9YPHwjhNjcm6-45" target="DWMonZ4v9YPHwjhNjcm6-54">
          <mxGeometry relative="1" as="geometry">
            <Array as="points">
              <mxPoint x="140" y="263" />
              <mxPoint x="120" y="287" />
              <mxPoint x="110" y="287" />
            </Array>
          </mxGeometry>
        </mxCell>
        <mxCell id="DWMonZ4v9YPHwjhNjcm6-74" style="edgeStyle=orthogonalEdgeStyle;rounded=0;orthogonalLoop=1;jettySize=auto;html=1;entryX=0;entryY=0.5;entryDx=0;entryDy=0;endArrow=blockThin;endFill=1;startArrow=blockThin;startFill=1;" edge="1" parent="DWMonZ4v9YPHwjhNjcm6-29" source="DWMonZ4v9YPHwjhNjcm6-45" target="DWMonZ4v9YPHwjhNjcm6-25">
          <mxGeometry relative="1" as="geometry" />
        </mxCell>
        <mxCell id="DWMonZ4v9YPHwjhNjcm6-45" value="analysis_service" style="image;aspect=fixed;perimeter=ellipsePerimeter;html=1;align=center;shadow=0;dashed=0;fontColor=#000000;labelBackgroundColor=default;fontSize=12;spacingTop=0;image=img/lib/ibm/applications/application_logic.svg;" vertex="1" parent="DWMonZ4v9YPHwjhNjcm6-29">
          <mxGeometry x="270" y="220" width="60" height="60" as="geometry" />
        </mxCell>
        <mxCell id="DWMonZ4v9YPHwjhNjcm6-53" style="edgeStyle=orthogonalEdgeStyle;rounded=0;orthogonalLoop=1;jettySize=auto;html=1;entryX=0;entryY=0.5;entryDx=0;entryDy=0;endArrow=classicThin;endFill=1;" edge="1" parent="DWMonZ4v9YPHwjhNjcm6-29" source="DWMonZ4v9YPHwjhNjcm6-50" target="DWMonZ4v9YPHwjhNjcm6-52">
          <mxGeometry relative="1" as="geometry" />
        </mxCell>
        <mxCell id="DWMonZ4v9YPHwjhNjcm6-50" value="diagnoses_service" style="image;aspect=fixed;perimeter=ellipsePerimeter;html=1;align=center;shadow=0;dashed=0;fontColor=#000000;labelBackgroundColor=default;fontSize=12;spacingTop=0;image=img/lib/ibm/users/integrated_digital_experiences.svg;" vertex="1" parent="DWMonZ4v9YPHwjhNjcm6-29">
          <mxGeometry x="170" y="115" width="60" height="60" as="geometry" />
        </mxCell>
        <mxCell id="DWMonZ4v9YPHwjhNjcm6-52" value="diagnosesDB" style="image;aspect=fixed;perimeter=ellipsePerimeter;html=1;align=center;shadow=0;dashed=0;fontColor=#000000;labelBackgroundColor=default;fontSize=12;spacingTop=0;image=img/lib/ibm/data/data_services.svg;" vertex="1" parent="DWMonZ4v9YPHwjhNjcm6-29">
          <mxGeometry x="270" y="115" width="60" height="60" as="geometry" />
        </mxCell>
        <mxCell id="DWMonZ4v9YPHwjhNjcm6-58" style="edgeStyle=orthogonalEdgeStyle;rounded=0;orthogonalLoop=1;jettySize=auto;html=1;" edge="1" parent="DWMonZ4v9YPHwjhNjcm6-29" source="DWMonZ4v9YPHwjhNjcm6-54" target="DWMonZ4v9YPHwjhNjcm6-22">
          <mxGeometry relative="1" as="geometry">
            <Array as="points">
              <mxPoint x="135" y="310" />
            </Array>
          </mxGeometry>
        </mxCell>
        <mxCell id="DWMonZ4v9YPHwjhNjcm6-72" style="edgeStyle=orthogonalEdgeStyle;rounded=0;orthogonalLoop=1;jettySize=auto;html=1;entryX=0.5;entryY=0;entryDx=0;entryDy=0;" edge="1" parent="DWMonZ4v9YPHwjhNjcm6-29" source="DWMonZ4v9YPHwjhNjcm6-54" target="DWMonZ4v9YPHwjhNjcm6-56">
          <mxGeometry relative="1" as="geometry">
            <Array as="points">
              <mxPoint x="210" y="310" />
            </Array>
          </mxGeometry>
        </mxCell>
        <mxCell id="DWMonZ4v9YPHwjhNjcm6-54" value="samples_service" style="image;aspect=fixed;perimeter=ellipsePerimeter;html=1;align=center;shadow=0;dashed=0;fontColor=#000000;labelBackgroundColor=default;fontSize=12;spacingTop=0;image=img/lib/ibm/blockchain/event.svg;" vertex="1" parent="DWMonZ4v9YPHwjhNjcm6-29">
          <mxGeometry x="40" y="270" width="60" height="60" as="geometry" />
        </mxCell>
        <mxCell id="DWMonZ4v9YPHwjhNjcm6-22" value="Samples Repository&lt;br&gt;(NFS)" style="image;aspect=fixed;perimeter=ellipsePerimeter;html=1;align=center;shadow=0;dashed=0;fontColor=#000000;labelBackgroundColor=default;fontSize=12;spacingTop=0;image=img/lib/ibm/data/device_registry.svg;" vertex="1" parent="DWMonZ4v9YPHwjhNjcm6-29">
          <mxGeometry x="105" y="360" width="60" height="60" as="geometry" />
        </mxCell>
        <mxCell id="DWMonZ4v9YPHwjhNjcm6-56" value="samplesDB" style="image;aspect=fixed;perimeter=ellipsePerimeter;html=1;align=center;shadow=0;dashed=0;fontColor=#000000;labelBackgroundColor=default;fontSize=12;spacingTop=0;image=img/lib/ibm/data/data_services.svg;" vertex="1" parent="DWMonZ4v9YPHwjhNjcm6-29">
          <mxGeometry x="180" y="330" width="60" height="60" as="geometry" />
        </mxCell>
        <mxCell id="DWMonZ4v9YPHwjhNjcm6-75" style="edgeStyle=orthogonalEdgeStyle;rounded=0;orthogonalLoop=1;jettySize=auto;html=1;entryX=0;entryY=0.5;entryDx=0;entryDy=0;startArrow=none;startFill=0;endArrow=blockThin;endFill=1;exitX=0.5;exitY=0;exitDx=0;exitDy=0;" edge="1" parent="DWMonZ4v9YPHwjhNjcm6-29" source="DWMonZ4v9YPHwjhNjcm6-25" target="DWMonZ4v9YPHwjhNjcm6-49">
          <mxGeometry relative="1" as="geometry" />
        </mxCell>
        <mxCell id="DWMonZ4v9YPHwjhNjcm6-76" style="edgeStyle=orthogonalEdgeStyle;rounded=0;orthogonalLoop=1;jettySize=auto;html=1;entryX=0;entryY=0.5;entryDx=0;entryDy=0;endArrow=none;endFill=0;startArrow=blockThin;startFill=1;exitX=0.5;exitY=1;exitDx=0;exitDy=0;" edge="1" parent="DWMonZ4v9YPHwjhNjcm6-29" source="DWMonZ4v9YPHwjhNjcm6-25" target="DWMonZ4v9YPHwjhNjcm6-73">
          <mxGeometry relative="1" as="geometry" />
        </mxCell>
        <mxCell id="DWMonZ4v9YPHwjhNjcm6-25" value="RabbitMQ" style="image;aspect=fixed;perimeter=ellipsePerimeter;html=1;align=left;shadow=0;dashed=0;fontColor=#000000;labelBackgroundColor=default;fontSize=12;spacingTop=0;image=img/lib/ibm/blockchain/message_bus.svg;labelPosition=right;verticalLabelPosition=middle;verticalAlign=middle;spacingRight=0;spacing=6;" vertex="1" parent="DWMonZ4v9YPHwjhNjcm6-29">
          <mxGeometry x="390" y="230" width="40" height="40" as="geometry" />
        </mxCell>
        <mxCell id="DWMonZ4v9YPHwjhNjcm6-77" value="Disease Exchanges" style="fontStyle=0;verticalAlign=top;align=center;spacingTop=-2;fillColor=none;rounded=0;whiteSpace=wrap;html=1;strokeColor=#919191;strokeWidth=1;dashed=1;container=1;collapsible=0;expand=0;recursiveResize=0;" vertex="1" parent="DWMonZ4v9YPHwjhNjcm6-29">
          <mxGeometry x="470" y="100" width="180" height="130" as="geometry" />
        </mxCell>
        <mxCell id="DWMonZ4v9YPHwjhNjcm6-49" value="AnalysisRequest Exchange&lt;br&gt;(One per supported disease)" style="image;aspect=fixed;perimeter=ellipsePerimeter;html=1;align=center;shadow=0;dashed=0;fontColor=#000000;labelBackgroundColor=default;fontSize=12;spacingTop=0;image=img/lib/ibm/social/messaging.svg;verticalAlign=top;" vertex="1" parent="DWMonZ4v9YPHwjhNjcm6-77">
          <mxGeometry x="70" y="35" width="40" height="40" as="geometry" />
        </mxCell>
        <mxCell id="DWMonZ4v9YPHwjhNjcm6-78" value="User Exchange" style="fontStyle=0;verticalAlign=top;align=center;spacingTop=-2;fillColor=none;rounded=0;whiteSpace=wrap;html=1;strokeColor=#919191;strokeWidth=1;dashed=1;container=1;collapsible=0;expand=0;recursiveResize=0;" vertex="1" parent="DWMonZ4v9YPHwjhNjcm6-29">
          <mxGeometry x="470" y="270" width="180" height="130" as="geometry" />
        </mxCell>
        <mxCell id="DWMonZ4v9YPHwjhNjcm6-73" value="Response Exchange&lt;br&gt;(Transient, one per user)" style="image;aspect=fixed;perimeter=ellipsePerimeter;html=1;align=center;shadow=0;dashed=0;fontColor=#000000;labelBackgroundColor=default;fontSize=12;spacingTop=0;image=img/lib/ibm/social/messaging.svg;verticalAlign=top;" vertex="1" parent="DWMonZ4v9YPHwjhNjcm6-78">
          <mxGeometry x="70" y="40" width="40" height="40" as="geometry" />
        </mxCell>
        <mxCell id="DWMonZ4v9YPHwjhNjcm6-83" style="edgeStyle=orthogonalEdgeStyle;rounded=0;orthogonalLoop=1;jettySize=auto;html=1;entryX=1;entryY=0.5;entryDx=0;entryDy=0;endArrow=blockThin;endFill=1;exitX=0.5;exitY=1;exitDx=0;exitDy=0;" edge="1" parent="DWMonZ4v9YPHwjhNjcm6-29" source="DWMonZ4v9YPHwjhNjcm6-81" target="DWMonZ4v9YPHwjhNjcm6-73">
          <mxGeometry relative="1" as="geometry" />
        </mxCell>
        <mxCell id="DWMonZ4v9YPHwjhNjcm6-82" style="edgeStyle=orthogonalEdgeStyle;rounded=0;orthogonalLoop=1;jettySize=auto;html=1;entryX=0.5;entryY=0;entryDx=0;entryDy=0;endArrow=blockThin;endFill=1;" edge="1" parent="DWMonZ4v9YPHwjhNjcm6-29" source="DWMonZ4v9YPHwjhNjcm6-49" target="DWMonZ4v9YPHwjhNjcm6-81">
          <mxGeometry relative="1" as="geometry" />
        </mxCell>
        <mxCell id="DWMonZ4v9YPHwjhNjcm6-30" value="Public Network" style="shape=mxgraph.ibm.box;prType=public;fontStyle=0;verticalAlign=top;align=left;spacingLeft=32;spacingTop=4;fillColor=none;rounded=0;whiteSpace=wrap;html=1;strokeColor=#333333;strokeWidth=1;dashed=1;container=1;spacing=-4;collapsible=0;expand=0;recursiveResize=0;perimeterSpacing=0;" vertex="1" parent="1">
          <mxGeometry x="60" y="130" width="350" height="160" as="geometry" />
        </mxCell>
        <mxCell id="DWMonZ4v9YPHwjhNjcm6-31" value="Client" style="image;aspect=fixed;perimeter=ellipsePerimeter;html=1;align=center;shadow=0;dashed=0;fontColor=#000000;labelBackgroundColor=default;fontSize=12;spacingTop=0;image=img/lib/ibm/users/device.svg;" vertex="1" parent="DWMonZ4v9YPHwjhNjcm6-30">
          <mxGeometry x="30" y="45" width="60" height="60" as="geometry" />
        </mxCell>
        <mxCell id="DWMonZ4v9YPHwjhNjcm6-20" value="service_gateway" style="image;aspect=fixed;perimeter=ellipsePerimeter;html=1;align=center;shadow=0;dashed=0;fontColor=#000000;labelBackgroundColor=none;fontSize=12;spacingTop=0;image=img/lib/ibm/infrastructure/load_balancing_routing.svg;" vertex="1" parent="DWMonZ4v9YPHwjhNjcm6-30">
          <mxGeometry x="260" y="45" width="60" height="60" as="geometry" />
        </mxCell>
        <mxCell id="DWMonZ4v9YPHwjhNjcm6-26" style="edgeStyle=orthogonalEdgeStyle;rounded=0;orthogonalLoop=1;jettySize=auto;html=1;entryX=0;entryY=0.5;entryDx=0;entryDy=0;exitX=1;exitY=0.5;exitDx=0;exitDy=0;endArrow=blockThin;endFill=1;" edge="1" parent="DWMonZ4v9YPHwjhNjcm6-30" source="DWMonZ4v9YPHwjhNjcm6-38" target="DWMonZ4v9YPHwjhNjcm6-20">
          <mxGeometry relative="1" as="geometry">
            <mxPoint x="120" y="100" as="sourcePoint" />
          </mxGeometry>
        </mxCell>
        <mxCell id="DWMonZ4v9YPHwjhNjcm6-41" value="" style="edgeStyle=orthogonalEdgeStyle;rounded=0;orthogonalLoop=1;jettySize=auto;html=1;entryX=0;entryY=0.5;entryDx=0;entryDy=0;exitX=1;exitY=0.5;exitDx=0;exitDy=0;endArrow=blockThin;endFill=1;" edge="1" parent="DWMonZ4v9YPHwjhNjcm6-30" source="DWMonZ4v9YPHwjhNjcm6-31" target="DWMonZ4v9YPHwjhNjcm6-38">
          <mxGeometry relative="1" as="geometry">
            <mxPoint x="150" y="205" as="sourcePoint" />
            <mxPoint x="330" y="205" as="targetPoint" />
          </mxGeometry>
        </mxCell>
        <mxCell id="DWMonZ4v9YPHwjhNjcm6-38" value="protobuf_schema&lt;br&gt;(gRPC)" style="image;aspect=fixed;perimeter=ellipsePerimeter;html=1;align=center;shadow=0;dashed=0;fontColor=#000000;labelBackgroundColor=default;fontSize=12;spacingTop=0;image=img/lib/ibm/data/model.svg;" vertex="1" parent="DWMonZ4v9YPHwjhNjcm6-30">
          <mxGeometry x="150" y="60" width="30" height="30" as="geometry" />
        </mxCell>
        <mxCell id="DWMonZ4v9YPHwjhNjcm6-43" style="rounded=0;orthogonalLoop=1;jettySize=auto;html=1;entryX=0;entryY=0.5;entryDx=0;entryDy=0;endArrow=blockThin;endFill=1;" edge="1" parent="1" target="DWMonZ4v9YPHwjhNjcm6-42">
          <mxGeometry relative="1" as="geometry">
            <mxPoint x="430" y="205" as="sourcePoint" />
            <Array as="points">
              <mxPoint x="430" y="110" />
            </Array>
          </mxGeometry>
        </mxCell>
        <mxCell id="DWMonZ4v9YPHwjhNjcm6-46" style="rounded=0;orthogonalLoop=1;jettySize=auto;html=1;entryX=0;entryY=0.25;entryDx=0;entryDy=0;endArrow=blockThin;endFill=1;" edge="1" parent="1" target="DWMonZ4v9YPHwjhNjcm6-45">
          <mxGeometry relative="1" as="geometry">
            <mxPoint x="430" y="200" as="sourcePoint" />
            <Array as="points">
              <mxPoint x="430" y="297" />
            </Array>
          </mxGeometry>
        </mxCell>
        <mxCell id="DWMonZ4v9YPHwjhNjcm6-51" style="edgeStyle=orthogonalEdgeStyle;rounded=0;orthogonalLoop=1;jettySize=auto;html=1;endArrow=blockThin;endFill=1;" edge="1" parent="1" source="DWMonZ4v9YPHwjhNjcm6-20">
          <mxGeometry relative="1" as="geometry">
            <mxPoint x="460" y="205" as="targetPoint" />
          </mxGeometry>
        </mxCell>
      </root>
    </mxGraphModel>
  </diagram>
</mxfile>
